<svg xmlns="http://www.w3.org/2000/svg" xmlns:xlink="http://www.w3.org/1999/xlink" width="40" zoomAndPan="magnify" viewBox="0 0 30 30.000001" height="40" preserveAspectRatio="xMidYMid meet" version="1.0"><defs><clipPath id="7b981b3ba6"><path d="M 9 6 L 29 6 L 29 26 L 9 26 Z M 9 6 " clip-rule="nonzero"/></clipPath><clipPath id="c9d6c3bc68"><path d="M 32.703125 15.992188 L 16.425781 32.269531 L 2.980469 18.824219 L 19.257812 2.546875 Z M 32.703125 15.992188 " clip-rule="nonzero"/></clipPath><clipPath id="c25cb0fa18"><path d="M 9.75 25.511719 L 24.015625 24.679688 L 20.242188 20.90625 L 28.929688 12.21875 L 23.046875 6.332031 L 14.359375 15.019531 L 10.582031 11.246094 L 9.75 25.511719 " clip-rule="nonzero"/></clipPath><clipPath id="617d918ba7"><path d="M 1 3 L 21 3 L 21 23 L 1 23 Z M 1 3 " clip-rule="nonzero"/></clipPath><clipPath id="36e44a8f37"><path d="M -2.710938 13.039062 L 13.566406 -3.238281 L 27.011719 10.207031 L 10.734375 26.484375 Z M -2.710938 13.039062 " clip-rule="nonzero"/></clipPath><clipPath id="dc964ba105"><path d="M 20.242188 3.519531 L 5.976562 4.351562 L 9.75 8.128906 L 1.0625 16.8125 L 6.949219 22.699219 L 15.632812 14.011719 L 19.410156 17.785156 L 20.242188 3.519531 " clip-rule="nonzero"/></clipPath></defs><g clip-path="url(#7b981b3ba6)"><g clip-path="url(#c9d6c3bc68)"><g clip-path="url(#c25cb0fa18)"><path fill="#027dfc" d="M 32.703125 15.992188 L 16.425781 32.269531 L 2.980469 18.824219 L 19.257812 2.546875 Z M 32.703125 15.992188 " fill-opacity="1" fill-rule="nonzero"/></g></g></g><g clip-path="url(#617d918ba7)"><g clip-path="url(#36e44a8f37)"><g clip-path="url(#dc964ba105)"><path fill="#35beff" d="M -2.710938 13.039062 L 13.566406 -3.238281 L 27.011719 10.207031 L 10.734375 26.484375 Z M -2.710938 13.039062 " fill-opacity="1" fill-rule="nonzero"/></g></g></g></svg>